<mxfile host="app.diagrams.net" modified="2023-09-12T00:14:34.378Z" agent="Mozilla/5.0 (Windows NT 10.0; Win64; x64) AppleWebKit/537.36 (KHTML, like Gecko) Chrome/116.0.0.0 Safari/537.36" etag="rK9BPwCYGWR5DnGvlcH4" version="21.7.4" type="github">
  <diagram name="Page-1" id="ZJZ87vrSUxxcuNjcAp2-">
    <mxGraphModel dx="722" dy="1012" grid="1" gridSize="10" guides="1" tooltips="1" connect="1" arrows="1" fold="1" page="1" pageScale="1" pageWidth="4681" pageHeight="3300" math="0" shadow="0">
      <root>
        <mxCell id="0" />
        <mxCell id="1" parent="0" />
        <mxCell id="Dv2LgEM-CEuejBKIzicq-10" style="rounded=0;orthogonalLoop=1;jettySize=auto;html=1;exitX=0.5;exitY=1;exitDx=0;exitDy=0;" parent="1" source="Dv2LgEM-CEuejBKIzicq-1" target="Dv2LgEM-CEuejBKIzicq-4" edge="1">
          <mxGeometry relative="1" as="geometry" />
        </mxCell>
        <mxCell id="Dv2LgEM-CEuejBKIzicq-1" value="&lt;font style=&quot;font-size: 18px;&quot;&gt;&lt;b&gt;Start&lt;/b&gt;&lt;/font&gt;" style="rounded=1;whiteSpace=wrap;html=1;" parent="1" vertex="1">
          <mxGeometry x="260" y="210" width="120" height="60" as="geometry" />
        </mxCell>
        <mxCell id="Dv2LgEM-CEuejBKIzicq-2" value="&lt;font style=&quot;font-size: 24px;&quot;&gt;&lt;b&gt;retrieve&lt;/b&gt;&lt;/font&gt;" style="text;strokeColor=none;align=center;fillColor=none;html=1;verticalAlign=middle;whiteSpace=wrap;rounded=0;" parent="1" vertex="1">
          <mxGeometry x="245" y="70" width="150" height="80" as="geometry" />
        </mxCell>
        <mxCell id="Dv2LgEM-CEuejBKIzicq-3" value="&lt;span style=&quot;font-size: 18px;&quot;&gt;&lt;b&gt;End&lt;/b&gt;&lt;/span&gt;" style="rounded=1;whiteSpace=wrap;html=1;" parent="1" vertex="1">
          <mxGeometry x="320" y="1100" width="120" height="60" as="geometry" />
        </mxCell>
        <mxCell id="Dv2LgEM-CEuejBKIzicq-11" style="rounded=0;orthogonalLoop=1;jettySize=auto;html=1;exitX=0.5;exitY=1;exitDx=0;exitDy=0;" parent="1" source="Dv2LgEM-CEuejBKIzicq-4" target="Dv2LgEM-CEuejBKIzicq-5" edge="1">
          <mxGeometry relative="1" as="geometry" />
        </mxCell>
        <mxCell id="Dv2LgEM-CEuejBKIzicq-4" value="&lt;font style=&quot;font-size: 18px;&quot;&gt;&lt;b&gt;Player p&lt;/b&gt;&lt;/font&gt;" style="shape=hexagon;perimeter=hexagonPerimeter2;whiteSpace=wrap;html=1;fixedSize=1;" parent="1" vertex="1">
          <mxGeometry x="245" y="350" width="150" height="80" as="geometry" />
        </mxCell>
        <mxCell id="Dv2LgEM-CEuejBKIzicq-12" style="rounded=0;orthogonalLoop=1;jettySize=auto;html=1;exitX=0.5;exitY=1;exitDx=0;exitDy=0;edgeStyle=orthogonalEdgeStyle;" parent="1" source="Dv2LgEM-CEuejBKIzicq-5" target="Dv2LgEM-CEuejBKIzicq-6" edge="1">
          <mxGeometry relative="1" as="geometry" />
        </mxCell>
        <mxCell id="Dv2LgEM-CEuejBKIzicq-18" style="edgeStyle=orthogonalEdgeStyle;shape=connector;rounded=0;orthogonalLoop=1;jettySize=auto;html=1;exitX=0;exitY=0.5;exitDx=0;exitDy=0;entryX=0;entryY=0.5;entryDx=0;entryDy=0;labelBackgroundColor=default;strokeColor=default;fontFamily=Helvetica;fontSize=11;fontColor=default;endArrow=classic;" parent="1" source="Dv2LgEM-CEuejBKIzicq-5" target="Dv2LgEM-CEuejBKIzicq-9" edge="1">
          <mxGeometry relative="1" as="geometry">
            <Array as="points">
              <mxPoint x="70" y="550" />
              <mxPoint x="70" y="920" />
            </Array>
          </mxGeometry>
        </mxCell>
        <mxCell id="Dv2LgEM-CEuejBKIzicq-5" value="&lt;span style=&quot;font-size: 18px;&quot;&gt;&lt;b&gt;for: p in players&lt;/b&gt;&lt;/span&gt;" style="shape=hexagon;perimeter=hexagonPerimeter2;whiteSpace=wrap;html=1;fixedSize=1;" parent="1" vertex="1">
          <mxGeometry x="220" y="510" width="200" height="80" as="geometry" />
        </mxCell>
        <mxCell id="Dv2LgEM-CEuejBKIzicq-13" style="edgeStyle=orthogonalEdgeStyle;shape=connector;rounded=0;orthogonalLoop=1;jettySize=auto;html=1;exitX=1;exitY=0.75;exitDx=0;exitDy=0;entryX=0.5;entryY=0;entryDx=0;entryDy=0;labelBackgroundColor=default;strokeColor=default;fontFamily=Helvetica;fontSize=11;fontColor=default;endArrow=classic;" parent="1" source="Dv2LgEM-CEuejBKIzicq-6" target="Dv2LgEM-CEuejBKIzicq-8" edge="1">
          <mxGeometry relative="1" as="geometry" />
        </mxCell>
        <mxCell id="Dv2LgEM-CEuejBKIzicq-16" style="edgeStyle=orthogonalEdgeStyle;shape=connector;rounded=0;orthogonalLoop=1;jettySize=auto;html=1;exitX=1;exitY=0.25;exitDx=0;exitDy=0;entryX=1;entryY=0.5;entryDx=0;entryDy=0;labelBackgroundColor=default;strokeColor=default;fontFamily=Helvetica;fontSize=11;fontColor=default;endArrow=classic;" parent="1" source="Dv2LgEM-CEuejBKIzicq-6" target="Dv2LgEM-CEuejBKIzicq-5" edge="1">
          <mxGeometry relative="1" as="geometry">
            <Array as="points">
              <mxPoint x="540" y="701" />
              <mxPoint x="540" y="550" />
            </Array>
          </mxGeometry>
        </mxCell>
        <mxCell id="Dv2LgEM-CEuejBKIzicq-6" value="&lt;span style=&quot;font-size: 18px;&quot;&gt;&lt;b&gt;if: p.getNumber() == num&lt;/b&gt;&lt;/span&gt;" style="shape=hexagon;perimeter=hexagonPerimeter2;whiteSpace=wrap;html=1;fixedSize=1;" parent="1" vertex="1">
          <mxGeometry x="165" y="680" width="310" height="80" as="geometry" />
        </mxCell>
        <mxCell id="Dv2LgEM-CEuejBKIzicq-20" style="edgeStyle=orthogonalEdgeStyle;shape=connector;rounded=0;orthogonalLoop=1;jettySize=auto;html=1;exitX=0;exitY=0.5;exitDx=0;exitDy=0;entryX=0.5;entryY=0;entryDx=0;entryDy=0;labelBackgroundColor=default;strokeColor=default;fontFamily=Helvetica;fontSize=11;fontColor=default;endArrow=classic;" parent="1" source="Dv2LgEM-CEuejBKIzicq-8" target="Dv2LgEM-CEuejBKIzicq-3" edge="1">
          <mxGeometry relative="1" as="geometry" />
        </mxCell>
        <mxCell id="Dv2LgEM-CEuejBKIzicq-8" value="&lt;span style=&quot;font-size: 18px;&quot;&gt;&lt;b&gt;return p&lt;/b&gt;&lt;/span&gt;" style="shape=hexagon;perimeter=hexagonPerimeter2;whiteSpace=wrap;html=1;fixedSize=1;" parent="1" vertex="1">
          <mxGeometry x="480" y="880" width="150" height="80" as="geometry" />
        </mxCell>
        <mxCell id="Dv2LgEM-CEuejBKIzicq-19" style="edgeStyle=orthogonalEdgeStyle;shape=connector;rounded=0;orthogonalLoop=1;jettySize=auto;html=1;exitX=1;exitY=0.5;exitDx=0;exitDy=0;labelBackgroundColor=default;strokeColor=default;fontFamily=Helvetica;fontSize=11;fontColor=default;endArrow=classic;" parent="1" source="Dv2LgEM-CEuejBKIzicq-9" target="Dv2LgEM-CEuejBKIzicq-3" edge="1">
          <mxGeometry relative="1" as="geometry" />
        </mxCell>
        <mxCell id="Dv2LgEM-CEuejBKIzicq-9" value="&lt;span style=&quot;font-size: 18px;&quot;&gt;&lt;b&gt;return null&lt;/b&gt;&lt;/span&gt;" style="shape=hexagon;perimeter=hexagonPerimeter2;whiteSpace=wrap;html=1;fixedSize=1;" parent="1" vertex="1">
          <mxGeometry x="120" y="880" width="160" height="80" as="geometry" />
        </mxCell>
        <mxCell id="Dv2LgEM-CEuejBKIzicq-21" value="&lt;font size=&quot;1&quot; style=&quot;&quot;&gt;&lt;b style=&quot;font-size: 16px;&quot;&gt;True&lt;/b&gt;&lt;/font&gt;" style="text;strokeColor=none;align=center;fillColor=none;html=1;verticalAlign=middle;whiteSpace=wrap;rounded=0;fontSize=11;fontFamily=Helvetica;fontColor=default;" parent="1" vertex="1">
          <mxGeometry x="320" y="600" width="60" height="30" as="geometry" />
        </mxCell>
        <mxCell id="Dv2LgEM-CEuejBKIzicq-22" value="&lt;font size=&quot;1&quot; style=&quot;&quot;&gt;&lt;b style=&quot;font-size: 16px;&quot;&gt;True&lt;/b&gt;&lt;/font&gt;" style="text;strokeColor=none;align=center;fillColor=none;html=1;verticalAlign=middle;whiteSpace=wrap;rounded=0;fontSize=11;fontFamily=Helvetica;fontColor=default;" parent="1" vertex="1">
          <mxGeometry x="470" y="740" width="60" height="30" as="geometry" />
        </mxCell>
        <mxCell id="Dv2LgEM-CEuejBKIzicq-23" value="&lt;font style=&quot;font-size: 16px;&quot;&gt;&lt;b&gt;False&lt;/b&gt;&lt;/font&gt;" style="text;strokeColor=none;align=center;fillColor=none;html=1;verticalAlign=middle;whiteSpace=wrap;rounded=0;fontSize=11;fontFamily=Helvetica;fontColor=default;" parent="1" vertex="1">
          <mxGeometry x="470" y="670" width="60" height="30" as="geometry" />
        </mxCell>
        <mxCell id="Dv2LgEM-CEuejBKIzicq-24" value="&lt;font style=&quot;font-size: 16px;&quot;&gt;&lt;b&gt;False&lt;/b&gt;&lt;/font&gt;" style="text;strokeColor=none;align=center;fillColor=none;html=1;verticalAlign=middle;whiteSpace=wrap;rounded=0;fontSize=11;fontFamily=Helvetica;fontColor=default;" parent="1" vertex="1">
          <mxGeometry x="160" y="520" width="60" height="30" as="geometry" />
        </mxCell>
        <mxCell id="Dv2LgEM-CEuejBKIzicq-25" value="&lt;span style=&quot;font-size: 24px;&quot;&gt;&lt;b&gt;insert&lt;/b&gt;&lt;/span&gt;" style="text;strokeColor=none;align=center;fillColor=none;html=1;verticalAlign=middle;whiteSpace=wrap;rounded=0;" parent="1" vertex="1">
          <mxGeometry x="1020" y="60" width="150" height="80" as="geometry" />
        </mxCell>
        <mxCell id="Dv2LgEM-CEuejBKIzicq-48" style="edgeStyle=orthogonalEdgeStyle;shape=connector;rounded=0;orthogonalLoop=1;jettySize=auto;html=1;exitX=0.5;exitY=1;exitDx=0;exitDy=0;entryX=0.5;entryY=0;entryDx=0;entryDy=0;labelBackgroundColor=default;strokeColor=default;fontFamily=Helvetica;fontSize=11;fontColor=default;endArrow=classic;" parent="1" source="Dv2LgEM-CEuejBKIzicq-26" target="Dv2LgEM-CEuejBKIzicq-28" edge="1">
          <mxGeometry relative="1" as="geometry" />
        </mxCell>
        <mxCell id="Dv2LgEM-CEuejBKIzicq-26" value="&lt;font style=&quot;font-size: 18px;&quot;&gt;&lt;b&gt;Start&lt;/b&gt;&lt;/font&gt;" style="rounded=1;whiteSpace=wrap;html=1;" parent="1" vertex="1">
          <mxGeometry x="1035" y="200" width="120" height="60" as="geometry" />
        </mxCell>
        <mxCell id="Dv2LgEM-CEuejBKIzicq-27" value="&lt;span style=&quot;font-size: 18px;&quot;&gt;&lt;b&gt;End&lt;/b&gt;&lt;/span&gt;" style="rounded=1;whiteSpace=wrap;html=1;" parent="1" vertex="1">
          <mxGeometry x="1035" y="1200" width="120" height="60" as="geometry" />
        </mxCell>
        <mxCell id="Dv2LgEM-CEuejBKIzicq-49" style="edgeStyle=orthogonalEdgeStyle;shape=connector;rounded=0;orthogonalLoop=1;jettySize=auto;html=1;exitX=0.5;exitY=1;exitDx=0;exitDy=0;entryX=0.5;entryY=0;entryDx=0;entryDy=0;labelBackgroundColor=default;strokeColor=default;fontFamily=Helvetica;fontSize=11;fontColor=default;endArrow=classic;" parent="1" source="Dv2LgEM-CEuejBKIzicq-28" target="Dv2LgEM-CEuejBKIzicq-29" edge="1">
          <mxGeometry relative="1" as="geometry" />
        </mxCell>
        <mxCell id="Dv2LgEM-CEuejBKIzicq-28" value="&lt;font style=&quot;font-size: 18px;&quot;&gt;&lt;b&gt;Player p&lt;/b&gt;&lt;/font&gt;" style="shape=hexagon;perimeter=hexagonPerimeter2;whiteSpace=wrap;html=1;fixedSize=1;" parent="1" vertex="1">
          <mxGeometry x="1020" y="360" width="150" height="80" as="geometry" />
        </mxCell>
        <mxCell id="Dv2LgEM-CEuejBKIzicq-43" style="edgeStyle=orthogonalEdgeStyle;shape=connector;rounded=0;orthogonalLoop=1;jettySize=auto;html=1;exitX=0;exitY=0.5;exitDx=0;exitDy=0;entryX=0.5;entryY=0;entryDx=0;entryDy=0;labelBackgroundColor=default;strokeColor=default;fontFamily=Helvetica;fontSize=11;fontColor=default;endArrow=classic;" parent="1" source="Dv2LgEM-CEuejBKIzicq-29" target="Dv2LgEM-CEuejBKIzicq-41" edge="1">
          <mxGeometry relative="1" as="geometry" />
        </mxCell>
        <mxCell id="Dv2LgEM-CEuejBKIzicq-47" style="shape=connector;rounded=0;orthogonalLoop=1;jettySize=auto;html=1;exitX=0.625;exitY=1;exitDx=0;exitDy=0;labelBackgroundColor=default;strokeColor=default;fontFamily=Helvetica;fontSize=11;fontColor=default;endArrow=classic;entryX=0.375;entryY=0;entryDx=0;entryDy=0;" parent="1" source="Dv2LgEM-CEuejBKIzicq-29" target="Dv2LgEM-CEuejBKIzicq-30" edge="1">
          <mxGeometry relative="1" as="geometry" />
        </mxCell>
        <mxCell id="Dv2LgEM-CEuejBKIzicq-29" value="&lt;span style=&quot;font-size: 18px;&quot;&gt;&lt;b&gt;for: p in players&lt;/b&gt;&lt;/span&gt;" style="shape=hexagon;perimeter=hexagonPerimeter2;whiteSpace=wrap;html=1;fixedSize=1;" parent="1" vertex="1">
          <mxGeometry x="995" y="540" width="200" height="80" as="geometry" />
        </mxCell>
        <mxCell id="Dv2LgEM-CEuejBKIzicq-38" style="edgeStyle=orthogonalEdgeStyle;shape=connector;rounded=0;orthogonalLoop=1;jettySize=auto;html=1;exitX=1;exitY=0.25;exitDx=0;exitDy=0;entryX=1;entryY=0.5;entryDx=0;entryDy=0;labelBackgroundColor=default;strokeColor=default;fontFamily=Helvetica;fontSize=11;fontColor=default;endArrow=classic;" parent="1" source="Dv2LgEM-CEuejBKIzicq-30" target="Dv2LgEM-CEuejBKIzicq-29" edge="1">
          <mxGeometry relative="1" as="geometry" />
        </mxCell>
        <mxCell id="Dv2LgEM-CEuejBKIzicq-39" style="edgeStyle=orthogonalEdgeStyle;shape=connector;rounded=0;orthogonalLoop=1;jettySize=auto;html=1;exitX=1;exitY=0.5;exitDx=0;exitDy=0;labelBackgroundColor=default;strokeColor=default;fontFamily=Helvetica;fontSize=11;fontColor=default;endArrow=classic;" parent="1" source="Dv2LgEM-CEuejBKIzicq-30" target="Dv2LgEM-CEuejBKIzicq-31" edge="1">
          <mxGeometry relative="1" as="geometry" />
        </mxCell>
        <mxCell id="Dv2LgEM-CEuejBKIzicq-30" value="&lt;span style=&quot;font-size: 18px;&quot;&gt;&lt;b&gt;if: p.getNumber() == player.getNumber()&lt;/b&gt;&lt;/span&gt;" style="shape=hexagon;perimeter=hexagonPerimeter2;whiteSpace=wrap;html=1;fixedSize=1;" parent="1" vertex="1">
          <mxGeometry x="965" y="740" width="420" height="80" as="geometry" />
        </mxCell>
        <mxCell id="Dv2LgEM-CEuejBKIzicq-40" style="edgeStyle=orthogonalEdgeStyle;shape=connector;rounded=0;orthogonalLoop=1;jettySize=auto;html=1;exitX=0.5;exitY=1;exitDx=0;exitDy=0;entryX=1;entryY=0.5;entryDx=0;entryDy=0;labelBackgroundColor=default;strokeColor=default;fontFamily=Helvetica;fontSize=11;fontColor=default;endArrow=classic;" parent="1" source="Dv2LgEM-CEuejBKIzicq-31" target="Dv2LgEM-CEuejBKIzicq-27" edge="1">
          <mxGeometry relative="1" as="geometry" />
        </mxCell>
        <mxCell id="Dv2LgEM-CEuejBKIzicq-31" value="&lt;span style=&quot;font-size: 18px;&quot;&gt;&lt;b&gt;return false&lt;/b&gt;&lt;/span&gt;" style="shape=hexagon;perimeter=hexagonPerimeter2;whiteSpace=wrap;html=1;fixedSize=1;" parent="1" vertex="1">
          <mxGeometry x="1360" y="1030" width="160" height="80" as="geometry" />
        </mxCell>
        <mxCell id="Dv2LgEM-CEuejBKIzicq-44" style="edgeStyle=orthogonalEdgeStyle;shape=connector;rounded=0;orthogonalLoop=1;jettySize=auto;html=1;exitX=0.5;exitY=1;exitDx=0;exitDy=0;labelBackgroundColor=default;strokeColor=default;fontFamily=Helvetica;fontSize=11;fontColor=default;endArrow=classic;" parent="1" source="Dv2LgEM-CEuejBKIzicq-41" target="Dv2LgEM-CEuejBKIzicq-42" edge="1">
          <mxGeometry relative="1" as="geometry" />
        </mxCell>
        <mxCell id="Dv2LgEM-CEuejBKIzicq-41" value="&lt;span style=&quot;font-size: 18px;&quot;&gt;&lt;b&gt;player.add(number)&lt;/b&gt;&lt;/span&gt;" style="shape=hexagon;perimeter=hexagonPerimeter2;whiteSpace=wrap;html=1;fixedSize=1;" parent="1" vertex="1">
          <mxGeometry x="760" y="910" width="250" height="80" as="geometry" />
        </mxCell>
        <mxCell id="Dv2LgEM-CEuejBKIzicq-45" style="edgeStyle=orthogonalEdgeStyle;shape=connector;rounded=0;orthogonalLoop=1;jettySize=auto;html=1;exitX=0.5;exitY=1;exitDx=0;exitDy=0;entryX=0;entryY=0.5;entryDx=0;entryDy=0;labelBackgroundColor=default;strokeColor=default;fontFamily=Helvetica;fontSize=11;fontColor=default;endArrow=classic;" parent="1" source="Dv2LgEM-CEuejBKIzicq-42" target="Dv2LgEM-CEuejBKIzicq-27" edge="1">
          <mxGeometry relative="1" as="geometry" />
        </mxCell>
        <mxCell id="Dv2LgEM-CEuejBKIzicq-42" value="&lt;span style=&quot;font-size: 18px;&quot;&gt;&lt;b&gt;return true&lt;/b&gt;&lt;/span&gt;" style="shape=hexagon;perimeter=hexagonPerimeter2;whiteSpace=wrap;html=1;fixedSize=1;" parent="1" vertex="1">
          <mxGeometry x="805" y="1070" width="160" height="80" as="geometry" />
        </mxCell>
        <mxCell id="Dv2LgEM-CEuejBKIzicq-50" value="&lt;font style=&quot;font-size: 16px;&quot;&gt;&lt;b&gt;False&lt;/b&gt;&lt;/font&gt;" style="text;strokeColor=none;align=center;fillColor=none;html=1;verticalAlign=middle;whiteSpace=wrap;rounded=0;fontSize=11;fontFamily=Helvetica;fontColor=default;" parent="1" vertex="1">
          <mxGeometry x="1310" y="690" width="60" height="30" as="geometry" />
        </mxCell>
        <mxCell id="Dv2LgEM-CEuejBKIzicq-51" value="&lt;font style=&quot;font-size: 16px;&quot;&gt;&lt;b&gt;False&lt;/b&gt;&lt;/font&gt;" style="text;strokeColor=none;align=center;fillColor=none;html=1;verticalAlign=middle;whiteSpace=wrap;rounded=0;fontSize=11;fontFamily=Helvetica;fontColor=default;" parent="1" vertex="1">
          <mxGeometry x="930" y="540" width="60" height="30" as="geometry" />
        </mxCell>
        <mxCell id="Dv2LgEM-CEuejBKIzicq-52" value="&lt;font size=&quot;1&quot; style=&quot;&quot;&gt;&lt;b style=&quot;font-size: 16px;&quot;&gt;True&lt;/b&gt;&lt;/font&gt;" style="text;strokeColor=none;align=center;fillColor=none;html=1;verticalAlign=middle;whiteSpace=wrap;rounded=0;fontSize=11;fontFamily=Helvetica;fontColor=default;" parent="1" vertex="1">
          <mxGeometry x="1130" y="630" width="60" height="30" as="geometry" />
        </mxCell>
        <mxCell id="Dv2LgEM-CEuejBKIzicq-53" value="&lt;font size=&quot;1&quot; style=&quot;&quot;&gt;&lt;b style=&quot;font-size: 16px;&quot;&gt;True&lt;/b&gt;&lt;/font&gt;" style="text;strokeColor=none;align=center;fillColor=none;html=1;verticalAlign=middle;whiteSpace=wrap;rounded=0;fontSize=11;fontFamily=Helvetica;fontColor=default;" parent="1" vertex="1">
          <mxGeometry x="1385" y="750" width="60" height="30" as="geometry" />
        </mxCell>
        <mxCell id="AVZAoc2EcmSfYqdWSh-7-1" value="&lt;span style=&quot;font-size: 24px;&quot;&gt;&lt;b&gt;remove&lt;/b&gt;&lt;/span&gt;" style="text;strokeColor=none;align=center;fillColor=none;html=1;verticalAlign=middle;whiteSpace=wrap;rounded=0;" vertex="1" parent="1">
          <mxGeometry x="1780" y="60" width="150" height="80" as="geometry" />
        </mxCell>
        <mxCell id="AVZAoc2EcmSfYqdWSh-7-12" style="edgeStyle=none;shape=connector;rounded=0;orthogonalLoop=1;jettySize=auto;html=1;exitX=0.5;exitY=1;exitDx=0;exitDy=0;labelBackgroundColor=default;strokeColor=default;fontFamily=Helvetica;fontSize=11;fontColor=default;endArrow=classic;" edge="1" parent="1" source="AVZAoc2EcmSfYqdWSh-7-2" target="AVZAoc2EcmSfYqdWSh-7-3">
          <mxGeometry relative="1" as="geometry" />
        </mxCell>
        <mxCell id="AVZAoc2EcmSfYqdWSh-7-2" value="&lt;font style=&quot;font-size: 18px;&quot;&gt;&lt;b&gt;Start&lt;/b&gt;&lt;/font&gt;" style="rounded=1;whiteSpace=wrap;html=1;" vertex="1" parent="1">
          <mxGeometry x="1785" y="200" width="120" height="60" as="geometry" />
        </mxCell>
        <mxCell id="AVZAoc2EcmSfYqdWSh-7-11" style="edgeStyle=none;shape=connector;rounded=0;orthogonalLoop=1;jettySize=auto;html=1;exitX=0.5;exitY=1;exitDx=0;exitDy=0;labelBackgroundColor=default;strokeColor=default;fontFamily=Helvetica;fontSize=11;fontColor=default;endArrow=classic;" edge="1" parent="1" source="AVZAoc2EcmSfYqdWSh-7-3" target="AVZAoc2EcmSfYqdWSh-7-4">
          <mxGeometry relative="1" as="geometry" />
        </mxCell>
        <mxCell id="AVZAoc2EcmSfYqdWSh-7-3" value="&lt;font style=&quot;font-size: 18px;&quot;&gt;&lt;b&gt;Player p&lt;/b&gt;&lt;/font&gt;" style="shape=hexagon;perimeter=hexagonPerimeter2;whiteSpace=wrap;html=1;fixedSize=1;" vertex="1" parent="1">
          <mxGeometry x="1770" y="350" width="150" height="80" as="geometry" />
        </mxCell>
        <mxCell id="AVZAoc2EcmSfYqdWSh-7-10" style="edgeStyle=none;shape=connector;rounded=0;orthogonalLoop=1;jettySize=auto;html=1;exitX=0.5;exitY=1;exitDx=0;exitDy=0;entryX=0.5;entryY=0;entryDx=0;entryDy=0;labelBackgroundColor=default;strokeColor=default;fontFamily=Helvetica;fontSize=11;fontColor=default;endArrow=classic;" edge="1" parent="1" source="AVZAoc2EcmSfYqdWSh-7-4" target="AVZAoc2EcmSfYqdWSh-7-5">
          <mxGeometry relative="1" as="geometry" />
        </mxCell>
        <mxCell id="AVZAoc2EcmSfYqdWSh-7-17" style="edgeStyle=orthogonalEdgeStyle;shape=connector;rounded=0;orthogonalLoop=1;jettySize=auto;html=1;exitX=0;exitY=0.5;exitDx=0;exitDy=0;entryX=0;entryY=0.625;entryDx=0;entryDy=0;entryPerimeter=0;labelBackgroundColor=default;strokeColor=default;fontFamily=Helvetica;fontSize=11;fontColor=default;endArrow=classic;" edge="1" parent="1" source="AVZAoc2EcmSfYqdWSh-7-4" target="AVZAoc2EcmSfYqdWSh-7-16">
          <mxGeometry relative="1" as="geometry">
            <Array as="points">
              <mxPoint x="1610" y="570" />
              <mxPoint x="1610" y="1360" />
            </Array>
          </mxGeometry>
        </mxCell>
        <mxCell id="AVZAoc2EcmSfYqdWSh-7-4" value="&lt;span style=&quot;font-size: 18px;&quot;&gt;&lt;b&gt;for: p in players&lt;/b&gt;&lt;/span&gt;" style="shape=hexagon;perimeter=hexagonPerimeter2;whiteSpace=wrap;html=1;fixedSize=1;" vertex="1" parent="1">
          <mxGeometry x="1745" y="530" width="200" height="80" as="geometry" />
        </mxCell>
        <mxCell id="AVZAoc2EcmSfYqdWSh-7-7" style="rounded=0;orthogonalLoop=1;jettySize=auto;html=1;exitX=0.5;exitY=1;exitDx=0;exitDy=0;" edge="1" parent="1" source="AVZAoc2EcmSfYqdWSh-7-5" target="AVZAoc2EcmSfYqdWSh-7-6">
          <mxGeometry relative="1" as="geometry" />
        </mxCell>
        <mxCell id="AVZAoc2EcmSfYqdWSh-7-15" style="edgeStyle=orthogonalEdgeStyle;shape=connector;rounded=0;orthogonalLoop=1;jettySize=auto;html=1;exitX=1;exitY=0.5;exitDx=0;exitDy=0;entryX=1;entryY=0.5;entryDx=0;entryDy=0;labelBackgroundColor=default;strokeColor=default;fontFamily=Helvetica;fontSize=11;fontColor=default;endArrow=classic;" edge="1" parent="1" source="AVZAoc2EcmSfYqdWSh-7-5" target="AVZAoc2EcmSfYqdWSh-7-4">
          <mxGeometry relative="1" as="geometry">
            <Array as="points">
              <mxPoint x="2090" y="760" />
              <mxPoint x="2090" y="570" />
            </Array>
          </mxGeometry>
        </mxCell>
        <mxCell id="AVZAoc2EcmSfYqdWSh-7-5" value="&lt;span style=&quot;font-size: 18px;&quot;&gt;&lt;b&gt;if: p.getNumber() == i&lt;/b&gt;&lt;/span&gt;" style="shape=hexagon;perimeter=hexagonPerimeter2;whiteSpace=wrap;html=1;fixedSize=1;" vertex="1" parent="1">
          <mxGeometry x="1690" y="720" width="310" height="80" as="geometry" />
        </mxCell>
        <mxCell id="AVZAoc2EcmSfYqdWSh-7-9" style="rounded=0;orthogonalLoop=1;jettySize=auto;html=1;exitX=0.5;exitY=1;exitDx=0;exitDy=0;" edge="1" parent="1" source="AVZAoc2EcmSfYqdWSh-7-6" target="AVZAoc2EcmSfYqdWSh-7-8">
          <mxGeometry relative="1" as="geometry" />
        </mxCell>
        <mxCell id="AVZAoc2EcmSfYqdWSh-7-6" value="&lt;span style=&quot;font-size: 18px;&quot;&gt;&lt;b&gt;players.remove(p)&lt;/b&gt;&lt;/span&gt;" style="shape=hexagon;perimeter=hexagonPerimeter2;whiteSpace=wrap;html=1;fixedSize=1;" vertex="1" parent="1">
          <mxGeometry x="1745" y="930" width="200" height="80" as="geometry" />
        </mxCell>
        <mxCell id="AVZAoc2EcmSfYqdWSh-7-20" style="edgeStyle=orthogonalEdgeStyle;shape=connector;rounded=0;orthogonalLoop=1;jettySize=auto;html=1;exitX=1;exitY=0.5;exitDx=0;exitDy=0;entryX=0.5;entryY=0;entryDx=0;entryDy=0;labelBackgroundColor=default;strokeColor=default;fontFamily=Helvetica;fontSize=11;fontColor=default;endArrow=classic;" edge="1" parent="1" source="AVZAoc2EcmSfYqdWSh-7-8" target="AVZAoc2EcmSfYqdWSh-7-18">
          <mxGeometry relative="1" as="geometry" />
        </mxCell>
        <mxCell id="AVZAoc2EcmSfYqdWSh-7-8" value="&lt;span style=&quot;font-size: 18px;&quot;&gt;&lt;b&gt;return true&lt;/b&gt;&lt;/span&gt;" style="shape=hexagon;perimeter=hexagonPerimeter2;whiteSpace=wrap;html=1;fixedSize=1;" vertex="1" parent="1">
          <mxGeometry x="1765" y="1130" width="160" height="80" as="geometry" />
        </mxCell>
        <mxCell id="AVZAoc2EcmSfYqdWSh-7-19" style="edgeStyle=orthogonalEdgeStyle;shape=connector;rounded=0;orthogonalLoop=1;jettySize=auto;html=1;exitX=1;exitY=0.5;exitDx=0;exitDy=0;entryX=0.5;entryY=0;entryDx=0;entryDy=0;labelBackgroundColor=default;strokeColor=default;fontFamily=Helvetica;fontSize=11;fontColor=default;endArrow=classic;" edge="1" parent="1" source="AVZAoc2EcmSfYqdWSh-7-16" target="AVZAoc2EcmSfYqdWSh-7-18">
          <mxGeometry relative="1" as="geometry" />
        </mxCell>
        <mxCell id="AVZAoc2EcmSfYqdWSh-7-16" value="&lt;span style=&quot;font-size: 18px;&quot;&gt;&lt;b&gt;return false&lt;/b&gt;&lt;/span&gt;" style="shape=hexagon;perimeter=hexagonPerimeter2;whiteSpace=wrap;html=1;fixedSize=1;" vertex="1" parent="1">
          <mxGeometry x="1770" y="1310" width="160" height="80" as="geometry" />
        </mxCell>
        <mxCell id="AVZAoc2EcmSfYqdWSh-7-18" value="&lt;span style=&quot;font-size: 18px;&quot;&gt;&lt;b&gt;End&lt;/b&gt;&lt;/span&gt;" style="rounded=1;whiteSpace=wrap;html=1;" vertex="1" parent="1">
          <mxGeometry x="2020" y="1430" width="120" height="60" as="geometry" />
        </mxCell>
        <mxCell id="AVZAoc2EcmSfYqdWSh-7-21" value="&lt;span style=&quot;font-size: 24px;&quot;&gt;&lt;b&gt;printRoster&lt;/b&gt;&lt;/span&gt;" style="text;strokeColor=none;align=center;fillColor=none;html=1;verticalAlign=middle;whiteSpace=wrap;rounded=0;" vertex="1" parent="1">
          <mxGeometry x="2570" y="60" width="150" height="80" as="geometry" />
        </mxCell>
        <mxCell id="AVZAoc2EcmSfYqdWSh-7-31" style="edgeStyle=orthogonalEdgeStyle;shape=connector;rounded=0;orthogonalLoop=1;jettySize=auto;html=1;exitX=0;exitY=0.5;exitDx=0;exitDy=0;entryX=0.5;entryY=0;entryDx=0;entryDy=0;labelBackgroundColor=default;strokeColor=default;fontFamily=Helvetica;fontSize=11;fontColor=default;endArrow=classic;" edge="1" parent="1" source="AVZAoc2EcmSfYqdWSh-7-22" target="AVZAoc2EcmSfYqdWSh-7-24">
          <mxGeometry relative="1" as="geometry" />
        </mxCell>
        <mxCell id="AVZAoc2EcmSfYqdWSh-7-32" style="edgeStyle=orthogonalEdgeStyle;shape=connector;rounded=0;orthogonalLoop=1;jettySize=auto;html=1;exitX=1;exitY=0.5;exitDx=0;exitDy=0;entryX=0.5;entryY=0;entryDx=0;entryDy=0;labelBackgroundColor=default;strokeColor=default;fontFamily=Helvetica;fontSize=11;fontColor=default;endArrow=classic;" edge="1" parent="1" source="AVZAoc2EcmSfYqdWSh-7-22" target="AVZAoc2EcmSfYqdWSh-7-26">
          <mxGeometry relative="1" as="geometry" />
        </mxCell>
        <mxCell id="AVZAoc2EcmSfYqdWSh-7-22" value="&lt;span style=&quot;font-size: 18px;&quot;&gt;&lt;b&gt;if: players.isEmpty()&lt;/b&gt;&lt;/span&gt;" style="shape=hexagon;perimeter=hexagonPerimeter2;whiteSpace=wrap;html=1;fixedSize=1;" vertex="1" parent="1">
          <mxGeometry x="2510" y="360" width="270" height="80" as="geometry" />
        </mxCell>
        <mxCell id="AVZAoc2EcmSfYqdWSh-7-30" style="edgeStyle=none;shape=connector;rounded=0;orthogonalLoop=1;jettySize=auto;html=1;exitX=0.5;exitY=1;exitDx=0;exitDy=0;entryX=0.5;entryY=0;entryDx=0;entryDy=0;labelBackgroundColor=default;strokeColor=default;fontFamily=Helvetica;fontSize=11;fontColor=default;endArrow=classic;" edge="1" parent="1" source="AVZAoc2EcmSfYqdWSh-7-23" target="AVZAoc2EcmSfYqdWSh-7-22">
          <mxGeometry relative="1" as="geometry" />
        </mxCell>
        <mxCell id="AVZAoc2EcmSfYqdWSh-7-23" value="&lt;font style=&quot;font-size: 18px;&quot;&gt;&lt;b&gt;Start&lt;/b&gt;&lt;/font&gt;" style="rounded=1;whiteSpace=wrap;html=1;" vertex="1" parent="1">
          <mxGeometry x="2585" y="200" width="120" height="60" as="geometry" />
        </mxCell>
        <mxCell id="AVZAoc2EcmSfYqdWSh-7-39" style="edgeStyle=orthogonalEdgeStyle;shape=connector;rounded=0;orthogonalLoop=1;jettySize=auto;html=1;exitX=0.5;exitY=1;exitDx=0;exitDy=0;entryX=0;entryY=0.5;entryDx=0;entryDy=0;labelBackgroundColor=default;strokeColor=default;fontFamily=Helvetica;fontSize=11;fontColor=default;endArrow=classic;" edge="1" parent="1" source="AVZAoc2EcmSfYqdWSh-7-24" target="AVZAoc2EcmSfYqdWSh-7-38">
          <mxGeometry relative="1" as="geometry" />
        </mxCell>
        <mxCell id="AVZAoc2EcmSfYqdWSh-7-24" value="&lt;span style=&quot;font-size: 18px;&quot;&gt;&lt;b&gt;print: &quot;There is no one in the roster.&quot;&lt;/b&gt;&lt;/span&gt;" style="shape=hexagon;perimeter=hexagonPerimeter2;whiteSpace=wrap;html=1;fixedSize=1;" vertex="1" parent="1">
          <mxGeometry x="2250" y="540" width="400" height="80" as="geometry" />
        </mxCell>
        <mxCell id="AVZAoc2EcmSfYqdWSh-7-35" style="edgeStyle=none;shape=connector;rounded=0;orthogonalLoop=1;jettySize=auto;html=1;exitX=0.5;exitY=1;exitDx=0;exitDy=0;entryX=0.474;entryY=-0.006;entryDx=0;entryDy=0;entryPerimeter=0;labelBackgroundColor=default;strokeColor=default;fontFamily=Helvetica;fontSize=11;fontColor=default;endArrow=classic;" edge="1" parent="1" source="AVZAoc2EcmSfYqdWSh-7-25" target="AVZAoc2EcmSfYqdWSh-7-28">
          <mxGeometry relative="1" as="geometry" />
        </mxCell>
        <mxCell id="AVZAoc2EcmSfYqdWSh-7-37" style="edgeStyle=orthogonalEdgeStyle;shape=connector;rounded=0;orthogonalLoop=1;jettySize=auto;html=1;exitX=1;exitY=0.5;exitDx=0;exitDy=0;entryX=1;entryY=0.5;entryDx=0;entryDy=0;labelBackgroundColor=default;strokeColor=default;fontFamily=Helvetica;fontSize=11;fontColor=default;endArrow=classic;" edge="1" parent="1" source="AVZAoc2EcmSfYqdWSh-7-25" target="AVZAoc2EcmSfYqdWSh-7-29">
          <mxGeometry relative="1" as="geometry">
            <Array as="points">
              <mxPoint x="3360" y="700" />
              <mxPoint x="3360" y="1150" />
            </Array>
          </mxGeometry>
        </mxCell>
        <mxCell id="AVZAoc2EcmSfYqdWSh-7-25" value="&lt;span style=&quot;font-size: 18px;&quot;&gt;&lt;b&gt;for: p in players&lt;/b&gt;&lt;/span&gt;" style="shape=hexagon;perimeter=hexagonPerimeter2;whiteSpace=wrap;html=1;fixedSize=1;" vertex="1" parent="1">
          <mxGeometry x="2940" y="660" width="200" height="80" as="geometry" />
        </mxCell>
        <mxCell id="AVZAoc2EcmSfYqdWSh-7-33" style="edgeStyle=none;shape=connector;rounded=0;orthogonalLoop=1;jettySize=auto;html=1;exitX=0.5;exitY=1;exitDx=0;exitDy=0;labelBackgroundColor=default;strokeColor=default;fontFamily=Helvetica;fontSize=11;fontColor=default;endArrow=classic;" edge="1" parent="1" source="AVZAoc2EcmSfYqdWSh-7-26" target="AVZAoc2EcmSfYqdWSh-7-25">
          <mxGeometry relative="1" as="geometry" />
        </mxCell>
        <mxCell id="AVZAoc2EcmSfYqdWSh-7-26" value="&lt;font style=&quot;font-size: 18px;&quot;&gt;&lt;b&gt;Player p&lt;/b&gt;&lt;/font&gt;" style="shape=hexagon;perimeter=hexagonPerimeter2;whiteSpace=wrap;html=1;fixedSize=1;" vertex="1" parent="1">
          <mxGeometry x="2965" y="470" width="150" height="80" as="geometry" />
        </mxCell>
        <mxCell id="AVZAoc2EcmSfYqdWSh-7-36" style="edgeStyle=orthogonalEdgeStyle;shape=connector;rounded=0;orthogonalLoop=1;jettySize=auto;html=1;exitX=0;exitY=0.5;exitDx=0;exitDy=0;entryX=0;entryY=0.5;entryDx=0;entryDy=0;labelBackgroundColor=default;strokeColor=default;fontFamily=Helvetica;fontSize=11;fontColor=default;endArrow=classic;" edge="1" parent="1" source="AVZAoc2EcmSfYqdWSh-7-28" target="AVZAoc2EcmSfYqdWSh-7-25">
          <mxGeometry relative="1" as="geometry">
            <Array as="points">
              <mxPoint x="2740" y="870" />
              <mxPoint x="2740" y="700" />
            </Array>
          </mxGeometry>
        </mxCell>
        <mxCell id="AVZAoc2EcmSfYqdWSh-7-28" value="&lt;span style=&quot;font-size: 18px;&quot;&gt;&lt;b&gt;print: &quot;Name: player&#39;s name, Number: player&#39;s Number&quot;&lt;/b&gt;&lt;/span&gt;" style="shape=hexagon;perimeter=hexagonPerimeter2;whiteSpace=wrap;html=1;fixedSize=1;" vertex="1" parent="1">
          <mxGeometry x="2790" y="830" width="530" height="80" as="geometry" />
        </mxCell>
        <mxCell id="AVZAoc2EcmSfYqdWSh-7-40" style="edgeStyle=orthogonalEdgeStyle;shape=connector;rounded=0;orthogonalLoop=1;jettySize=auto;html=1;exitX=0.5;exitY=1;exitDx=0;exitDy=0;entryX=1;entryY=0.5;entryDx=0;entryDy=0;labelBackgroundColor=default;strokeColor=default;fontFamily=Helvetica;fontSize=11;fontColor=default;endArrow=classic;" edge="1" parent="1" source="AVZAoc2EcmSfYqdWSh-7-29" target="AVZAoc2EcmSfYqdWSh-7-38">
          <mxGeometry relative="1" as="geometry" />
        </mxCell>
        <mxCell id="AVZAoc2EcmSfYqdWSh-7-29" value="&lt;span style=&quot;font-size: 18px;&quot;&gt;&lt;b&gt;print: &quot;That&#39;s everyone on the team!&quot;&lt;/b&gt;&lt;/span&gt;" style="shape=hexagon;perimeter=hexagonPerimeter2;whiteSpace=wrap;html=1;fixedSize=1;" vertex="1" parent="1">
          <mxGeometry x="2840" y="1110" width="400" height="80" as="geometry" />
        </mxCell>
        <mxCell id="AVZAoc2EcmSfYqdWSh-7-38" value="&lt;span style=&quot;font-size: 18px;&quot;&gt;&lt;b&gt;End&lt;/b&gt;&lt;/span&gt;" style="rounded=1;whiteSpace=wrap;html=1;" vertex="1" parent="1">
          <mxGeometry x="2540" y="1270" width="120" height="60" as="geometry" />
        </mxCell>
      </root>
    </mxGraphModel>
  </diagram>
</mxfile>
